#Comment line ignore any data following # character
#Hierarchical Translation and Rotation (.htr) file
[Header]		#Header keywords are followed by a single value
FileType htr		#Single word string
DataType HTRS		#Translation followed by rotation and scale data
FileVersion 1		#integer
NumSegments 18		#integer
NumFrames 5		#integer
DataFrameRate 60		#integer, data frame rate in this file
EulerRotationOrder ZYX
CalibrationUnits mm
RotationUnits Degrees
GlobalAxisofGravity Y
BoneLengthAxis Y
ScaleFactor 1.000000
[SegmentNames&Hierarchy]
#CHILD	PARENT
Head	Neck
Neck	Chest
Chest	Hips
LeftShoulder	LeftCollar
RightShoulder	RightCollar
LeftElbow	LeftShoulder
RightElbow	RightShoulder
LeftWrist	LeftElbow
RightWrist	RightElbow
Hips	GLOBAL
LeftHip	Hips
RightHip	Hips
LeftKnee	LeftHip
RightKnee	RightHip
LeftAnkle	LeftKnee
RightAnkle	RightKnee
LeftCollar	Chest
RightCollar	Chest
[BasePosition]
#SegmentName Tx, Ty, Tz, Rx, Ry, Rz, BoneLength
Head	0.000003	141.966248	0.000002	-37.745777	-8.179454	6.203664	80.000046
Neck	0.000000	379.566772	0.000000	32.855431	-5.194619	1.823337	141.966263
Chest	0.000000	94.891693	0.000000	0.000002	12.877405	-0.000012	379.566803
LeftShoulder	0.000003	154.023666	0.000005	171.957962	-79.977570	-157.094910	215.219986
RightShoulder	-0.000001	146.408707	-0.000001	20.020029	60.865143	-8.207462	240.139038
LeftElbow	0.000007	215.219971	-0.000011	-24.162848	54.442085	-17.491318	336.440125
RightElbow	-0.000021	240.139038	0.000007	-21.925606	-43.617706	23.102211	322.101532
LeftWrist	-0.000014	336.440094	0.000002	173.178864	-0.531422	156.628021	100.348160
RightWrist	0.000005	322.101501	0.000026	1.868945	1.747480	14.125610	109.739998
Hips	377.886597	1077.530640	704.474976	-179.011169	36.455761	-178.006714	94.891701
LeftHip	95.336761	5.238981	-8.336124	-0.485735	-9.415434	-176.117065	525.916443
RightHip	-96.119095	-4.691877	-4.857316	2.457280	-1.423929	-179.125565	528.302429
LeftKnee	0.000004	525.916443	0.000001	-10.646533	-14.541370	-1.855900	514.711975
RightKnee	-0.000002	528.302429	0.000004	-12.768950	2.118825	-3.063609	521.764099
LeftAnkle	0.000003	514.711975	0.000009	97.965164	-0.000001	0.000000	253.446518
RightAnkle	0.000001	521.764099	-0.000002	99.242271	0.000002	0.000000	256.283173
LeftCollar	19.999998	366.483276	-15.126845	169.660507	-4.312743	90.901894	154.023682
RightCollar	-19.999996	366.483215	-15.126822	171.369568	4.171492	-91.645760	146.408707
#Beginning of Data. Separated by tabs
[Head]
#Fr	Tx	Ty	Tz	Rx	Ry	Rz	SF
177	-0.000011	15.729660	-0.000004	-8.397054	17.581173	11.195543	1.000000
178	-0.000007	15.579620	-0.000002	-8.106153	17.576536	11.009706	0.999999
179	-0.000013	15.678314	-0.000002	-7.995467	17.512236	10.906452	1.000000
180	0.000001	15.864563	-0.000002	-8.050356	17.438564	10.704560	0.999999
181	-0.000003	15.682373	-0.000014	-7.778658	17.337828	10.687376	1.000000
[Neck]
#Fr	Tx	Ty	Tz	Rx	Ry	Rz	SF
177	-0.000002	-8.345123	-0.000003	-2.480142	4.400084	-12.590364	1.110798
178	-0.000010	-8.318726	-0.000002	-2.299676	4.377759	-12.174477	1.109742
179	-0.000009	-8.300446	0.000000	-2.105387	4.337536	-11.828738	1.110437
180	-0.000000	-8.407166	0.000003	-1.865977	4.299311	-11.446907	1.111749
181	-0.000001	-8.590454	-0.000003	-1.751173	4.244245	-11.128525	1.110465
[Chest]
#Fr	Tx	Ty	Tz	Rx	Ry	Rz	SF
177	-0.000001	-2.086227	0.000001	-0.000004	-3.615877	0.000005	0.978014
178	-0.000001	-2.079735	0.000000	-0.000010	-3.830439	0.000027	0.978084
179	-0.000000	-2.075142	0.000001	-0.000003	-4.035693	0.000016	0.978132
180	-0.000000	-2.101830	0.000000	0.000007	-4.253684	0.000001	0.977851
181	-0.000001	-2.147614	-0.000000	-0.000016	-4.499229	0.000028	0.977368
[LeftShoulder]
#Fr	Tx	Ty	Tz	Rx	Ry	Rz	SF
177	0.000002	-4.909546	-0.000005	19.502451	22.307459	60.502914	1.087260
178	-0.000005	-4.411865	-0.000000	21.635397	25.227970	61.637901	1.089929
179	-0.000006	-3.926788	0.000004	24.097822	28.259970	63.077332	1.093425
180	-0.000004	-3.412689	-0.000016	26.933195	31.382803	64.966377	1.097854
181	-0.000007	-2.875900	0.000002	30.182617	34.509972	67.280785	1.102488
[RightShoulder]
#Fr	Tx	Ty	Tz	Rx	Ry	Rz	SF
177	0.000004	9.234863	-0.000005	57.890209	-49.911110	-78.264015	1.108968
178	-0.000001	9.362366	-0.000032	58.121513	-50.066929	-78.944885	1.109535
179	0.000001	9.556808	-0.000019	58.336971	-50.209290	-79.604691	1.110155
180	0.000004	9.705505	-0.000003	58.576752	-50.357658	-80.286903	1.110825
181	0.000002	9.806290	-0.000026	58.825665	-50.503071	-80.940361	1.111536
[LeftElbow]
#Fr	Tx	Ty	Tz	Rx	Ry	Rz	SF
177	-0.000023	18.780045	-0.000004	-72.651474	-30.973299	44.234772	0.830405
178	-0.000052	19.354507	-0.000008	-72.968155	-30.068747	42.790703	0.823403
179	-0.000018	20.106918	0.000014	-72.737816	-29.352665	40.787663	0.816792
180	0.000002	21.060226	-0.000003	-71.834206	-28.822012	38.092381	0.811337
181	-0.000003	22.057526	0.000029	-70.206596	-28.401758	34.685120	0.807164
[RightElbow]
#Fr	Tx	Ty	Tz	Rx	Ry	Rz	SF
177	0.000016	26.167389	-0.000024	-15.533827	26.139317	4.867090	0.919408
178	0.000033	26.303741	-0.000024	-14.024598	25.452316	4.170851	0.922933
179	0.000022	26.452515	-0.000021	-12.448129	24.606735	3.493756	0.926748
180	0.000029	26.613403	-0.000011	-10.819180	23.562096	2.845514	0.930458
181	0.000032	26.784241	-0.000017	-9.251416	22.511438	2.189101	0.934102
[LeftWrist]
#Fr	Tx	Ty	Tz	Rx	Ry	Rz	SF
177	0.000017	-57.058502	0.000010	89.543343	-78.914764	-110.350372	0.973219
178	0.000026	-59.414124	-0.000005	87.278015	-79.216263	-109.181259	0.975451
179	0.000009	-61.638367	-0.000028	85.038361	-79.588486	-107.892204	0.980269
180	0.000007	-63.473816	-0.000011	83.189041	-79.956512	-106.701500	0.986460
181	0.000005	-64.877594	-0.000010	82.018730	-80.174263	-105.954330	0.991439
[RightWrist]
#Fr	Tx	Ty	Tz	Rx	Ry	Rz	SF
177	-0.000010	-25.958649	0.000009	-84.280602	78.949043	-94.539490	0.960618
178	0.000006	-24.823486	-0.000046	-83.537674	79.227890	-94.135696	0.959701
179	-0.000070	-23.594452	-0.000040	-82.871872	79.540192	-93.711525	0.958666
180	-0.000008	-22.399475	-0.000028	-82.376213	79.844307	-93.333824	0.958556
181	0.000027	-21.225800	-0.000043	-81.746284	80.196953	-92.849556	0.958458
[Hips]
#Fr	Tx	Ty	Tz	Rx	Ry	Rz	SF
177	-1040.407104	24.952148	-721.072205	157.113327	-56.449993	-155.818436	0.978015
178	-1040.602051	24.463257	-720.800049	157.406052	-56.888687	-156.110077	0.978083
179	-1041.002686	24.042725	-720.420288	157.651932	-57.362881	-156.344101	0.978131
180	-1041.625977	23.812378	-720.120117	157.892746	-57.890327	-156.534668	0.977850
181	-1042.375366	23.717163	-719.601685	158.089233	-58.471054	-156.675354	0.977368
[LeftHip]
#Fr	Tx	Ty	Tz	Rx	Ry	Rz	SF
177	1.079674	3.766794	0.426520	-3.020559	0.630736	4.890087	0.967960
178	1.164078	3.281442	0.749010	-2.965719	0.686168	4.579084	0.967491
179	1.224098	2.765225	0.965221	-2.853486	0.708221	4.334679	0.966627
180	1.247345	2.301153	1.178853	-2.682481	0.718323	4.096008	0.966214
181	1.203667	1.636008	1.514735	-2.532677	0.658175	3.904787	0.965662
[RightHip]
#Fr	Tx	Ty	Tz	Rx	Ry	Rz	SF
177	-0.225754	-5.035171	-2.519852	11.306520	-0.313431	3.301534	1.019215
178	-0.200790	-4.595087	-2.719428	11.627667	-0.244260	2.956598	1.018800
179	-0.189194	-4.144594	-2.827592	12.001090	-0.201357	2.604234	1.018667
180	-0.145020	-3.739904	-2.927011	12.458406	-0.152605	2.208580	1.018553
181	-0.065331	-3.127913	-2.764533	12.929809	-0.074643	1.761691	1.018784
[LeftKnee]
#Fr	Tx	Ty	Tz	Rx	Ry	Rz	SF
177	0.000001	-16.850433	0.000001	1.473169	-29.647934	-3.626508	0.976910
178	-0.000013	-17.096832	-0.000002	1.447244	-29.368673	-3.528670	0.976487
179	-0.000001	-17.551514	-0.000003	1.320159	-29.037878	-3.405960	0.976544
180	-0.000006	-17.768860	0.000007	1.180871	-28.644081	-3.258251	0.976671
181	-0.000006	-18.058929	0.000002	1.061375	-28.103039	-3.130722	0.976668
[RightKnee]
#Fr	Tx	Ty	Tz	Rx	Ry	Rz	SF
177	0.000003	10.151245	-0.000017	-5.408014	-1.420704	0.439161	0.963359
178	0.000010	9.932068	0.000003	-6.006119	-1.169572	0.424023	0.963908
179	-0.000012	9.861572	-0.000002	-6.694866	-0.933020	0.422152	0.964216
180	0.000009	9.801453	-0.000011	-7.491181	-0.775094	0.467390	0.964549
181	0.000006	9.923706	-0.000026	-8.396292	-0.738500	0.576503	0.964996
[LeftAnkle]
#Fr	Tx	Ty	Tz	Rx	Ry	Rz	SF
177	0.000011	-11.884613	0.000014	0.106117	-0.000000	-0.000000	1.029676
178	-0.000009	-12.102356	-0.000004	0.097265	0.000000	-0.000000	1.029557
179	-0.000008	-12.072968	-0.000011	0.116937	-0.000000	-0.000001	1.029577
180	0.000002	-12.007782	0.000001	0.140058	-0.000000	-0.000001	1.029396
181	-0.000001	-12.009399	0.000007	0.143365	0.000000	-0.000002	1.029408
[RightAnkle]
#Fr	Tx	Ty	Tz	Rx	Ry	Rz	SF
177	-0.000004	-19.117737	-0.000025	-16.348547	0.000001	0.000003	1.002521
178	0.000006	-18.831451	-0.000029	-16.062786	0.000000	0.000002	1.003530
179	0.000004	-18.670563	0.000010	-15.776445	0.000000	0.000001	1.003699
180	0.000001	-18.496887	-0.000004	-15.563297	0.000002	0.000003	1.003134
181	-0.000009	-18.263763	0.000011	-15.313222	0.000000	0.000005	1.003818
[LeftCollar]
#Fr	Tx	Ty	Tz	Rx	Ry	Rz	SF
177	-0.000002	-8.903534	0.501606	-2.465205	-2.210725	-1.050064	0.968125
178	0.000025	-8.826172	0.454153	-2.876052	-2.003733	-0.728433	0.971356
179	-0.000002	-8.750427	0.401198	-3.286397	-1.771485	-0.403530	0.974505
180	0.000006	-8.801056	0.349895	-3.639520	-1.547030	-0.067107	0.977843
181	-0.000015	-8.924286	0.295321	-3.988381	-1.306708	0.261285	0.981328
[RightCollar]
#Fr	Tx	Ty	Tz	Rx	Ry	Rz	SF
177	0.000002	-8.903534	0.501578	-7.914851	1.894777	-6.975327	1.063076
178	-0.000004	-8.826050	0.454131	-7.673206	1.733848	-7.134613	1.063947
179	0.000000	-8.750397	0.401180	-7.441504	1.548611	-7.298289	1.065275
180	-0.000002	-8.801086	0.349854	-7.210268	1.369726	-7.446383	1.066290
181	0.000004	-8.924255	0.295307	-6.973113	1.177159	-7.594038	1.066979
[EndOfFile]
